<?xml version="1.0" encoding="utf-8"?>
<!-- Generator: Adobe Illustrator 16.0.4, SVG Export Plug-In . SVG Version: 6.00 Build 0)  -->
<!DOCTYPE svg PUBLIC "-//W3C//DTD SVG 1.1//EN" "http://www.w3.org/Graphics/SVG/1.1/DTD/svg11.dtd">
<svg version="1.1" id="Layer_1" xmlns="http://www.w3.org/2000/svg" xmlns:xlink="http://www.w3.org/1999/xlink" x="0px" y="0px"
	 width="822.05px" height="841.89px" viewBox="0 0 822.05 841.89" enable-background="new 0 0 822.05 841.89" xml:space="preserve">
<rect x="132.044" y="158.946" fill-rule="evenodd" clip-rule="evenodd" fill="#495D7F" stroke="#4DB748" stroke-miterlimit="10" width="566.929" height="566.929"/>
<g>
	<g>
		<g>
			<g>
				<path fill-rule="evenodd" clip-rule="evenodd" fill="#9ECF72" d="M815.771,369.692c-0.657-15.514-1.326-31.031-1.983-46.539
					c-3.058-19.708-1.937-39.81-5.351-58.73c-1.578-10.498-3.167-20.996-4.746-31.494c-5.583-26.267-10.98-51.123-19.809-73.773
					c-16.34-41.96-41.521-77.275-76.629-99.982C632.06,10.543,520.217,2.96,397.167,3.294c-12.276,0.204-24.553,0.399-36.831,0.604
					c-7.524,0.275-15.057,0.545-22.578,0.814c-5.342,0.276-10.69,0.545-16.04,0.815c-14.451,1.148-28.91,2.304-43.362,3.452
					c-7.856,0.953-15.714,1.899-23.561,2.852c-17.594,3.338-35.006,5.245-51.49,9.545C127.421,41.184,82.988,70.438,47.871,132.336
					c-17.436,30.721-24.777,68.553-33.268,108.722c-1.786,13.544-3.564,27.097-5.349,40.641C8,297.817,6.746,313.943,5.492,330.062
					c-0.198,5.489-0.396,10.978-0.595,16.459c-0.461,14.839-0.921,29.671-1.381,44.51c0,5.48,0,10.97,0,16.459
					c0,9.62,0,19.239,0,28.856c0.262,13.951,0.523,27.911,0.785,41.864c0.333,9.683,0.667,19.375,0.994,29.059
					c0.396,6.565,0.793,13.138,1.189,19.709c2.756,17.635,2.072,35.625,5.151,52.632c4.699,26.029,7.81,51.171,14.849,74.382
					c19.118,63.007,47.918,105.162,98.613,135.746c22.626,13.65,49.696,22.405,78.21,29.875c10.565,2.165,21.126,4.333,31.688,6.5
					c13.198,1.831,26.403,3.656,39.6,5.488c16.897,1.352,33.793,2.713,50.688,4.062c5.745,0.204,11.493,0.408,17.229,0.61
					c12.142,0.337,24.293,0.679,36.435,1.02c6.071,0.066,12.151,0.129,18.221,0.204c8.444,0,16.896,0,25.341,0
					c16.506-0.277,33.006-0.545,49.504-0.814c4.752-0.205,9.509-0.409,14.26-0.611c14.118-0.953,28.254-1.897,42.372-2.843
					c12.079-1.359,24.156-2.712,36.235-4.062c27.142-5.163,53.052-8.903,77.027-16.665c52.005-16.842,90.638-43.776,118.811-84.946
					c21.673-31.674,32.838-71.909,42.378-116.239c2.048-13.748,4.09-27.506,6.136-41.252c1.452-16.396,2.905-32.79,4.356-49.184
					c0.262-5.89,0.533-11.786,0.794-17.676c0.53-13.413,1.056-26.828,1.586-40.24c0-3.584,0-7.177,0-10.769
					c0.064-6.231,0.128-12.469,0.199-18.7c0-8.665,0-17.339,0-26.006c0-6.237,0-12.468,0-18.699
					C816.032,382.422,815.896,376.053,815.771,369.692z M653.638,616.374H166.046v-350.28h105.643l40.635-41.701h195.033
					l40.635,41.701h105.646V616.374z"/>
			</g>
		</g>
		<g>
			<path fill-rule="evenodd" clip-rule="evenodd" fill="#9ECF72" d="M409.842,332.814c-58.338,0-105.645,48.55-105.645,108.419
				c0,59.871,47.307,108.421,105.645,108.421c58.336,0,105.644-48.55,105.644-108.421
				C515.485,381.364,468.178,332.814,409.842,332.814z"/>
		</g>
		<g opacity="0.5">
			<g>
				<rect x="166.046" y="616.374" fill-rule="evenodd" clip-rule="evenodd" fill="#FFFFFF" width="487.591" height="8.341"/>
			</g>
			<g>
				<path fill-rule="evenodd" clip-rule="evenodd" fill="#FFFFFF" d="M813.787,323.154c-3.058-19.708-1.937-39.81-5.351-58.73
					c-1.578-10.498-3.167-20.996-4.746-31.502c-5.583-26.259-10.98-51.115-19.8-73.766c-16.349-41.96-41.529-77.275-76.638-99.982
					C632.06,10.543,520.217,2.96,397.167,3.294c-12.276,0.204-24.553,0.399-36.831,0.604c-7.524,0.275-15.057,0.545-22.578,0.814
					c-5.342,0.276-10.69,0.545-16.04,0.815c-14.451,1.148-28.91,2.304-43.362,3.452c-7.856,0.953-15.714,1.899-23.561,2.852
					c-17.594,3.338-35.006,5.245-51.49,9.545C127.421,41.184,82.988,70.438,47.871,132.336
					c-17.436,30.721-24.777,68.553-33.268,108.722c-1.786,13.544-3.564,27.097-5.349,40.641C8,297.817,6.746,313.943,5.492,330.062
					c-0.198,5.489-0.396,10.978-0.595,16.459c-0.461,14.839-0.921,29.671-1.381,44.51c0,2.778,0,5.554,0,8.339
					c0.46-14.839,0.92-29.67,1.381-44.509c0.198-5.481,0.397-10.971,0.595-16.46C6.746,322.283,8,306.157,9.254,290.039
					c1.785-13.545,3.562-27.097,5.349-40.641c8.491-40.168,15.832-78,33.268-108.722c35.118-61.898,79.55-91.153,155.435-110.96
					c16.484-4.301,33.896-6.207,51.49-9.546c7.847-0.954,15.705-1.897,23.561-2.85c14.453-1.148,28.912-2.305,43.362-3.454
					c5.349-0.269,10.697-0.537,16.04-0.814c7.521-0.269,15.054-0.537,22.578-0.814c12.277-0.204,24.554-0.399,36.831-0.603
					C520.217,11.3,632.06,18.883,707.253,67.514c35.108,22.707,60.289,58.022,76.638,99.982c8.819,22.65,14.217,47.508,19.8,73.766
					c1.579,10.506,3.168,21.004,4.746,31.503c3.414,18.92,2.293,39.02,5.351,58.73c0.657,15.507,1.326,31.023,1.983,46.538
					c0.125,6.361,0.262,12.729,0.396,19.099c0-2.777,0-5.562,0-8.34c-0.135-6.37-0.271-12.738-0.396-19.099
					C815.113,354.178,814.444,338.662,813.787,323.154z"/>
			</g>
			<g>
				<path fill-rule="evenodd" clip-rule="evenodd" fill="#FFFFFF" d="M409.842,332.814c-58.338,0-105.645,48.55-105.645,108.419
					c0,1.41,0.151,2.778,0.198,4.169c2.159-57.914,48.48-104.249,105.447-104.249c56.964,0,103.281,46.335,105.437,104.249
					c0.049-1.391,0.207-2.759,0.207-4.169C515.485,381.364,468.178,332.814,409.842,332.814z"/>
			</g>
		</g>
	</g>
</g>
</svg>
